<svg xmlns="http://www.w3.org/2000/svg" width="100%" height="100%" viewBox="0 0 100 100">
  <path fill="#f44336" d="M90.5 100h-81A9.511 9.511 0 0 1 0 90.5v-81A9.51 9.51 0 0 1 9.5 0h81a9.511 9.511 0 0 1 9.5 9.5v81a9.511 9.511 0 0 1-9.5 9.5zM61.546 30.748a9.436 9.436 0 0 0-9.4 9.45v25.549h6.2V49.7H80.9v-6.25H58.4V40.2a3.175 3.175 0 0 1 .944-2.257A3.175 3.175 0 0 1 61.6 37h25.55v-6.25zm-20.7 12.7v22.3h6.25v-35l-6.25 4.8L29.6 44.2l-11.25-8.65-6.25-4.8v35h6.25v-22.3l6.151 4.7 5.1 3.95 5.1-3.95 6.148-4.7z"/>
</svg>
